<mxfile host="Electron" agent="Mozilla/5.0 (Windows NT 10.0; Win64; x64) AppleWebKit/537.36 (KHTML, like Gecko) draw.io/26.2.2 Chrome/134.0.6998.178 Electron/35.1.2 Safari/537.36" version="26.2.2">
  <diagram name="Page-1" id="GlGpLKQds-qRhlguYNi6">
    <mxGraphModel dx="1894" dy="1822" grid="1" gridSize="10" guides="1" tooltips="1" connect="1" arrows="1" fold="1" page="1" pageScale="1" pageWidth="850" pageHeight="1100" math="0" shadow="0">
      <root>
        <mxCell id="0" />
        <mxCell id="1" parent="0" />
        <mxCell id="T6DtHPbqom4wnW11nf8g-1" value="sd Register User&lt;span style=&quot;color: rgba(0, 0, 0, 0); font-family: monospace; font-size: 0px; text-align: start; text-wrap-mode: nowrap;&quot;&gt;%3CmxGraphModel%3E%3Croot%3E%3CmxCell%20id%3D%220%22%2F%3E%3CmxCell%20id%3D%221%22%20parent%3D%220%22%2F%3E%3CmxCell%20id%3D%222%22%20value%3D%22sd%20Login%22%20style%3D%22shape%3DumlFrame%3BwhiteSpace%3Dwrap%3Bhtml%3D1%3BpointerEvents%3D0%3BrecursiveResize%3D0%3Bcontainer%3D1%3Bcollapsible%3D0%3Bwidth%3D160%3B%22%20vertex%3D%221%22%20parent%3D%221%22%3E%3CmxGeometry%20x%3D%22-70%22%20y%3D%2210%22%20width%3D%221020%22%20height%3D%22700%22%20as%3D%22geometry%22%2F%3E%3C%2FmxCell%3E%3CmxCell%20id%3D%223%22%20value%3D%22User%22%20style%3D%22shape%3DumlActor%3BverticalLabelPosition%3Dbottom%3BverticalAlign%3Dtop%3Bhtml%3D1%3B%22%20vertex%3D%221%22%20parent%3D%222%22%3E%3CmxGeometry%20x%3D%2220%22%20y%3D%2260%22%20width%3D%2230%22%20height%3D%2260%22%20as%3D%22geometry%22%2F%3E%3C%2FmxCell%3E%3C%2Froot%3E%3C%2FmxGraphModel%3E&lt;/span&gt;" style="shape=umlFrame;whiteSpace=wrap;html=1;pointerEvents=0;recursiveResize=0;container=1;collapsible=0;width=160;" parent="1" vertex="1">
          <mxGeometry x="-130" y="-110" width="1160" height="800" as="geometry" />
        </mxCell>
        <mxCell id="T6DtHPbqom4wnW11nf8g-19" value="&amp;nbsp; &amp;nbsp; &amp;nbsp; &amp;nbsp; &amp;nbsp; &amp;nbsp; &amp;nbsp; &amp;nbsp; &amp;nbsp; &amp;nbsp; &amp;nbsp; &amp;nbsp; &amp;nbsp; User" style="shape=umlLifeline;perimeter=lifelinePerimeter;whiteSpace=wrap;html=1;container=1;dropTarget=0;collapsible=0;recursiveResize=0;outlineConnect=0;portConstraint=eastwest;newEdgeStyle={&quot;curved&quot;:0,&quot;rounded&quot;:0};participant=umlActor;" parent="T6DtHPbqom4wnW11nf8g-1" vertex="1">
          <mxGeometry x="30" y="50" width="20" height="730" as="geometry" />
        </mxCell>
        <mxCell id="T6DtHPbqom4wnW11nf8g-25" value="" style="html=1;points=[[0,0,0,0,5],[0,1,0,0,-5],[1,0,0,0,5],[1,1,0,0,-5]];perimeter=orthogonalPerimeter;outlineConnect=0;targetShapes=umlLifeline;portConstraint=eastwest;newEdgeStyle={&quot;curved&quot;:0,&quot;rounded&quot;:0};" parent="T6DtHPbqom4wnW11nf8g-19" vertex="1">
          <mxGeometry x="5" y="80" width="10" height="640" as="geometry" />
        </mxCell>
        <mxCell id="T6DtHPbqom4wnW11nf8g-21" value=":API" style="shape=umlLifeline;perimeter=lifelinePerimeter;whiteSpace=wrap;html=1;container=1;dropTarget=0;collapsible=0;recursiveResize=0;outlineConnect=0;portConstraint=eastwest;newEdgeStyle={&quot;curved&quot;:0,&quot;rounded&quot;:0};" parent="T6DtHPbqom4wnW11nf8g-1" vertex="1">
          <mxGeometry x="540" y="60" width="100" height="730" as="geometry" />
        </mxCell>
        <mxCell id="T6DtHPbqom4wnW11nf8g-35" value="" style="html=1;points=[[0,0,0,0,5],[0,1,0,0,-5],[1,0,0,0,5],[1,1,0,0,-5]];perimeter=orthogonalPerimeter;outlineConnect=0;targetShapes=umlLifeline;portConstraint=eastwest;newEdgeStyle={&quot;curved&quot;:0,&quot;rounded&quot;:0};" parent="T6DtHPbqom4wnW11nf8g-21" vertex="1">
          <mxGeometry x="45" y="130" width="10" height="550" as="geometry" />
        </mxCell>
        <mxCell id="T6DtHPbqom4wnW11nf8g-78" style="edgeStyle=orthogonalEdgeStyle;rounded=0;orthogonalLoop=1;jettySize=auto;html=1;curved=0;exitX=1;exitY=1;exitDx=0;exitDy=-5;exitPerimeter=0;" parent="T6DtHPbqom4wnW11nf8g-21" source="T6DtHPbqom4wnW11nf8g-76" target="T6DtHPbqom4wnW11nf8g-35" edge="1">
          <mxGeometry relative="1" as="geometry">
            <mxPoint x="60" y="180" as="targetPoint" />
            <Array as="points">
              <mxPoint x="80" y="155" />
              <mxPoint x="80" y="180" />
            </Array>
          </mxGeometry>
        </mxCell>
        <mxCell id="T6DtHPbqom4wnW11nf8g-76" value="" style="html=1;points=[[0,0,0,0,5],[0,1,0,0,-5],[1,0,0,0,5],[1,1,0,0,-5]];perimeter=orthogonalPerimeter;outlineConnect=0;targetShapes=umlLifeline;portConstraint=eastwest;newEdgeStyle={&quot;curved&quot;:0,&quot;rounded&quot;:0};" parent="T6DtHPbqom4wnW11nf8g-21" vertex="1">
          <mxGeometry x="50" y="140" width="10" height="20" as="geometry" />
        </mxCell>
        <mxCell id="T6DtHPbqom4wnW11nf8g-20" value=": User Interface" style="shape=umlLifeline;perimeter=lifelinePerimeter;whiteSpace=wrap;html=1;container=1;dropTarget=0;collapsible=0;recursiveResize=0;outlineConnect=0;portConstraint=eastwest;newEdgeStyle={&quot;curved&quot;:0,&quot;rounded&quot;:0};" parent="T6DtHPbqom4wnW11nf8g-1" vertex="1">
          <mxGeometry x="240" y="60" width="100" height="730" as="geometry" />
        </mxCell>
        <mxCell id="T6DtHPbqom4wnW11nf8g-26" value="" style="html=1;points=[[0,0,0,0,5],[0,1,0,0,-5],[1,0,0,0,5],[1,1,0,0,-5]];perimeter=orthogonalPerimeter;outlineConnect=0;targetShapes=umlLifeline;portConstraint=eastwest;newEdgeStyle={&quot;curved&quot;:0,&quot;rounded&quot;:0};" parent="T6DtHPbqom4wnW11nf8g-20" vertex="1">
          <mxGeometry x="45" y="120" width="10" height="590" as="geometry" />
        </mxCell>
        <mxCell id="T6DtHPbqom4wnW11nf8g-105" value="" style="html=1;points=[[0,0,0,0,5],[0,1,0,0,-5],[1,0,0,0,5],[1,1,0,0,-5]];perimeter=orthogonalPerimeter;outlineConnect=0;targetShapes=umlLifeline;portConstraint=eastwest;newEdgeStyle={&quot;curved&quot;:0,&quot;rounded&quot;:0};" parent="T6DtHPbqom4wnW11nf8g-20" vertex="1">
          <mxGeometry x="45" y="410" width="15" height="20" as="geometry" />
        </mxCell>
        <mxCell id="T6DtHPbqom4wnW11nf8g-128" value="" style="html=1;points=[[0,0,0,0,5],[0,1,0,0,-5],[1,0,0,0,5],[1,1,0,0,-5]];perimeter=orthogonalPerimeter;outlineConnect=0;targetShapes=umlLifeline;portConstraint=eastwest;newEdgeStyle={&quot;curved&quot;:0,&quot;rounded&quot;:0};" parent="T6DtHPbqom4wnW11nf8g-20" vertex="1">
          <mxGeometry x="45" y="500" width="15" height="20" as="geometry" />
        </mxCell>
        <mxCell id="Q7TuzkHMrgkAkMYCFhBG-1" value="" style="html=1;points=[[0,0,0,0,5],[0,1,0,0,-5],[1,0,0,0,5],[1,1,0,0,-5]];perimeter=orthogonalPerimeter;outlineConnect=0;targetShapes=umlLifeline;portConstraint=eastwest;newEdgeStyle={&quot;curved&quot;:0,&quot;rounded&quot;:0};" vertex="1" parent="T6DtHPbqom4wnW11nf8g-20">
          <mxGeometry x="45" y="670" width="15" height="20" as="geometry" />
        </mxCell>
        <mxCell id="T6DtHPbqom4wnW11nf8g-22" value=":Database" style="shape=umlLifeline;perimeter=lifelinePerimeter;whiteSpace=wrap;html=1;container=1;dropTarget=0;collapsible=0;recursiveResize=0;outlineConnect=0;portConstraint=eastwest;newEdgeStyle={&quot;curved&quot;:0,&quot;rounded&quot;:0};size=40;" parent="T6DtHPbqom4wnW11nf8g-1" vertex="1">
          <mxGeometry x="1020" y="60" width="100" height="730" as="geometry" />
        </mxCell>
        <mxCell id="T6DtHPbqom4wnW11nf8g-23" value="" style="html=1;points=[[0,0,0,0,5],[0,1,0,0,-5],[1,0,0,0,5],[1,1,0,0,-5]];perimeter=orthogonalPerimeter;outlineConnect=0;targetShapes=umlLifeline;portConstraint=eastwest;newEdgeStyle={&quot;curved&quot;:0,&quot;rounded&quot;:0};" parent="T6DtHPbqom4wnW11nf8g-22" vertex="1">
          <mxGeometry width="10" height="40" as="geometry" />
        </mxCell>
        <mxCell id="T6DtHPbqom4wnW11nf8g-24" value="" style="html=1;points=[[0,0,0,0,5],[0,1,0,0,-5],[1,0,0,0,5],[1,1,0,0,-5]];perimeter=orthogonalPerimeter;outlineConnect=0;targetShapes=umlLifeline;portConstraint=eastwest;newEdgeStyle={&quot;curved&quot;:0,&quot;rounded&quot;:0};" parent="T6DtHPbqom4wnW11nf8g-22" vertex="1">
          <mxGeometry x="90" width="10" height="40" as="geometry" />
        </mxCell>
        <mxCell id="T6DtHPbqom4wnW11nf8g-39" value="" style="html=1;points=[[0,0,0,0,5],[0,1,0,0,-5],[1,0,0,0,5],[1,1,0,0,-5]];perimeter=orthogonalPerimeter;outlineConnect=0;targetShapes=umlLifeline;portConstraint=eastwest;newEdgeStyle={&quot;curved&quot;:0,&quot;rounded&quot;:0};" parent="T6DtHPbqom4wnW11nf8g-22" vertex="1">
          <mxGeometry x="45" y="260" width="10" height="350" as="geometry" />
        </mxCell>
        <mxCell id="T6DtHPbqom4wnW11nf8g-32" value="" style="endArrow=classic;html=1;rounded=0;" parent="T6DtHPbqom4wnW11nf8g-1" edge="1">
          <mxGeometry width="50" height="50" relative="1" as="geometry">
            <mxPoint x="39.44736842105249" y="190" as="sourcePoint" />
            <mxPoint x="280" y="190" as="targetPoint" />
            <Array as="points">
              <mxPoint x="80" y="190" />
              <mxPoint x="130" y="190" />
            </Array>
          </mxGeometry>
        </mxCell>
        <mxCell id="T6DtHPbqom4wnW11nf8g-34" value="Click Register Button" style="text;html=1;align=center;verticalAlign=middle;whiteSpace=wrap;rounded=0;" parent="T6DtHPbqom4wnW11nf8g-1" vertex="1">
          <mxGeometry x="80" y="160" width="120" height="30" as="geometry" />
        </mxCell>
        <mxCell id="T6DtHPbqom4wnW11nf8g-37" value="createUser(uId,Name, Surname, Email,Password,Gender, Age, Adress, DOB, dayReg, dayUpdated, lastLogged)" style="text;html=1;align=center;verticalAlign=middle;whiteSpace=wrap;rounded=0;" parent="T6DtHPbqom4wnW11nf8g-1" vertex="1">
          <mxGeometry x="670" y="190" width="230" height="80" as="geometry" />
        </mxCell>
        <mxCell id="T6DtHPbqom4wnW11nf8g-67" value=":User" style="shape=umlLifeline;perimeter=lifelinePerimeter;whiteSpace=wrap;html=1;container=1;dropTarget=0;collapsible=0;recursiveResize=0;outlineConnect=0;portConstraint=eastwest;newEdgeStyle={&quot;edgeStyle&quot;:&quot;elbowEdgeStyle&quot;,&quot;elbow&quot;:&quot;vertical&quot;,&quot;curved&quot;:0,&quot;rounded&quot;:0};" parent="T6DtHPbqom4wnW11nf8g-1" vertex="1">
          <mxGeometry x="920" y="260" width="100" height="300" as="geometry" />
        </mxCell>
        <mxCell id="T6DtHPbqom4wnW11nf8g-74" value="" style="endArrow=classic;html=1;rounded=0;" parent="T6DtHPbqom4wnW11nf8g-1" edge="1">
          <mxGeometry width="50" height="50" relative="1" as="geometry">
            <mxPoint x="600" y="320" as="sourcePoint" />
            <mxPoint x="1069.5" y="320" as="targetPoint" />
            <Array as="points">
              <mxPoint x="840" y="320" />
            </Array>
          </mxGeometry>
        </mxCell>
        <mxCell id="T6DtHPbqom4wnW11nf8g-75" value="regUser(user:User)" style="text;html=1;align=center;verticalAlign=middle;whiteSpace=wrap;rounded=0;" parent="T6DtHPbqom4wnW11nf8g-1" vertex="1">
          <mxGeometry x="770" y="290" width="60" height="30" as="geometry" />
        </mxCell>
        <mxCell id="T6DtHPbqom4wnW11nf8g-79" value="validate()" style="text;html=1;align=center;verticalAlign=middle;whiteSpace=wrap;rounded=0;" parent="T6DtHPbqom4wnW11nf8g-1" vertex="1">
          <mxGeometry x="610" y="190" width="60" height="30" as="geometry" />
        </mxCell>
        <mxCell id="T6DtHPbqom4wnW11nf8g-80" value="alt" style="shape=umlFrame;whiteSpace=wrap;html=1;pointerEvents=0;recursiveResize=0;container=1;collapsible=0;width=35;height=20;" parent="T6DtHPbqom4wnW11nf8g-1" vertex="1">
          <mxGeometry x="550" y="260" width="540" height="520" as="geometry" />
        </mxCell>
        <mxCell id="T6DtHPbqom4wnW11nf8g-73" value="" style="html=1;verticalAlign=bottom;labelBackgroundColor=none;endArrow=open;endFill=0;dashed=1;rounded=0;entryX=0.037;entryY=0.071;entryDx=0;entryDy=0;entryPerimeter=0;" parent="T6DtHPbqom4wnW11nf8g-80" edge="1">
          <mxGeometry width="160" relative="1" as="geometry">
            <mxPoint x="159" y="20" as="sourcePoint" />
            <mxPoint x="373.6999999999998" y="21.299999999999955" as="targetPoint" />
            <Array as="points">
              <mxPoint x="40" y="20" />
              <mxPoint x="110" y="21" />
              <mxPoint x="180" y="20" />
            </Array>
          </mxGeometry>
        </mxCell>
        <mxCell id="T6DtHPbqom4wnW11nf8g-81" value="[true]" style="text;html=1;align=center;verticalAlign=middle;whiteSpace=wrap;rounded=0;" parent="T6DtHPbqom4wnW11nf8g-80" vertex="1">
          <mxGeometry x="-10" y="20" width="60" height="30" as="geometry" />
        </mxCell>
        <mxCell id="T6DtHPbqom4wnW11nf8g-86" value="alt" style="shape=umlFrame;whiteSpace=wrap;html=1;pointerEvents=0;recursiveResize=0;container=1;collapsible=0;width=35;height=20;" parent="T6DtHPbqom4wnW11nf8g-80" vertex="1">
          <mxGeometry x="300" y="130" width="240" height="180" as="geometry" />
        </mxCell>
        <mxCell id="T6DtHPbqom4wnW11nf8g-88" value="[true]" style="text;html=1;align=center;verticalAlign=middle;whiteSpace=wrap;rounded=0;" parent="T6DtHPbqom4wnW11nf8g-86" vertex="1">
          <mxGeometry x="-10" y="20" width="60" height="30" as="geometry" />
        </mxCell>
        <mxCell id="T6DtHPbqom4wnW11nf8g-98" value="" style="html=1;verticalAlign=bottom;labelBackgroundColor=none;endArrow=open;endFill=0;dashed=1;rounded=0;" parent="T6DtHPbqom4wnW11nf8g-86" target="T6DtHPbqom4wnW11nf8g-35" edge="1">
          <mxGeometry width="160" relative="1" as="geometry">
            <mxPoint x="214.9999999999999" y="61.299999999999955" as="sourcePoint" />
            <mxPoint x="-121.85" y="60" as="targetPoint" />
            <Array as="points">
              <mxPoint x="21.299999999999955" y="60" />
              <mxPoint x="-48.70000000000002" y="61" />
            </Array>
          </mxGeometry>
        </mxCell>
        <mxCell id="T6DtHPbqom4wnW11nf8g-122" value="" style="html=1;verticalAlign=bottom;labelBackgroundColor=none;endArrow=open;endFill=0;dashed=1;rounded=0;" parent="T6DtHPbqom4wnW11nf8g-86" target="T6DtHPbqom4wnW11nf8g-35" edge="1">
          <mxGeometry width="160" relative="1" as="geometry">
            <mxPoint x="220" y="101" as="sourcePoint" />
            <mxPoint x="-80" y="101" as="targetPoint" />
            <Array as="points">
              <mxPoint x="196.29999999999995" y="100" />
              <mxPoint x="126.29999999999995" y="101" />
            </Array>
          </mxGeometry>
        </mxCell>
        <mxCell id="T6DtHPbqom4wnW11nf8g-123" value="" style="endArrow=none;dashed=1;html=1;rounded=0;entryX=0.988;entryY=0.408;entryDx=0;entryDy=0;entryPerimeter=0;" parent="T6DtHPbqom4wnW11nf8g-86" target="T6DtHPbqom4wnW11nf8g-86" edge="1">
          <mxGeometry width="50" height="50" relative="1" as="geometry">
            <mxPoint y="72.16" as="sourcePoint" />
            <mxPoint x="236.39999999999964" y="70.00000000000014" as="targetPoint" />
          </mxGeometry>
        </mxCell>
        <mxCell id="T6DtHPbqom4wnW11nf8g-124" value="[false]" style="text;html=1;align=center;verticalAlign=middle;whiteSpace=wrap;rounded=0;" parent="T6DtHPbqom4wnW11nf8g-86" vertex="1">
          <mxGeometry x="-10" y="70" width="60" height="30" as="geometry" />
        </mxCell>
        <mxCell id="T6DtHPbqom4wnW11nf8g-89" value="" style="html=1;points=[[0,0,0,0,5],[0,1,0,0,-5],[1,0,0,0,5],[1,1,0,0,-5]];perimeter=orthogonalPerimeter;outlineConnect=0;targetShapes=umlLifeline;portConstraint=eastwest;newEdgeStyle={&quot;curved&quot;:0,&quot;rounded&quot;:0};" parent="T6DtHPbqom4wnW11nf8g-80" vertex="1">
          <mxGeometry x="520" y="70" width="10" height="20" as="geometry" />
        </mxCell>
        <mxCell id="T6DtHPbqom4wnW11nf8g-85" value="" style="endArrow=none;dashed=1;html=1;rounded=0;exitX=0;exitY=0.722;exitDx=0;exitDy=0;exitPerimeter=0;entryX=0.993;entryY=0.723;entryDx=0;entryDy=0;entryPerimeter=0;" parent="T6DtHPbqom4wnW11nf8g-80" edge="1">
          <mxGeometry width="50" height="50" relative="1" as="geometry">
            <mxPoint x="1.8899999999999864" y="430" as="sourcePoint" />
            <mxPoint x="538.1099999999999" y="430.52" as="targetPoint" />
          </mxGeometry>
        </mxCell>
        <mxCell id="T6DtHPbqom4wnW11nf8g-95" value="[false]" style="text;html=1;align=center;verticalAlign=middle;whiteSpace=wrap;rounded=0;" parent="T6DtHPbqom4wnW11nf8g-80" vertex="1">
          <mxGeometry x="-10" y="430" width="60" height="30" as="geometry" />
        </mxCell>
        <mxCell id="T6DtHPbqom4wnW11nf8g-100" value="send(uId)" style="text;html=1;align=center;verticalAlign=middle;whiteSpace=wrap;rounded=0;" parent="T6DtHPbqom4wnW11nf8g-80" vertex="1">
          <mxGeometry x="160" y="165" width="60" height="30" as="geometry" />
        </mxCell>
        <mxCell id="T6DtHPbqom4wnW11nf8g-126" value="successful" style="text;html=1;align=center;verticalAlign=middle;whiteSpace=wrap;rounded=0;" parent="T6DtHPbqom4wnW11nf8g-80" vertex="1">
          <mxGeometry x="150" y="205" width="60" height="30" as="geometry" />
        </mxCell>
        <mxCell id="T6DtHPbqom4wnW11nf8g-83" value="" style="endArrow=classic;html=1;rounded=0;" parent="T6DtHPbqom4wnW11nf8g-1" edge="1">
          <mxGeometry width="50" height="50" relative="1" as="geometry">
            <mxPoint x="300" y="190" as="sourcePoint" />
            <mxPoint x="589.5" y="189.9999999999998" as="targetPoint" />
            <Array as="points">
              <mxPoint x="330.5" y="190" />
              <mxPoint x="380.5" y="190" />
            </Array>
          </mxGeometry>
        </mxCell>
        <mxCell id="T6DtHPbqom4wnW11nf8g-84" value="send to backend" style="text;html=1;align=center;verticalAlign=middle;whiteSpace=wrap;rounded=0;" parent="T6DtHPbqom4wnW11nf8g-1" vertex="1">
          <mxGeometry x="360" y="160" width="120" height="30" as="geometry" />
        </mxCell>
        <mxCell id="T6DtHPbqom4wnW11nf8g-91" style="edgeStyle=orthogonalEdgeStyle;rounded=0;orthogonalLoop=1;jettySize=auto;html=1;curved=0;exitX=1;exitY=1;exitDx=0;exitDy=-5;exitPerimeter=0;" parent="T6DtHPbqom4wnW11nf8g-1" source="T6DtHPbqom4wnW11nf8g-89" target="T6DtHPbqom4wnW11nf8g-39" edge="1">
          <mxGeometry relative="1" as="geometry">
            <Array as="points">
              <mxPoint x="1100" y="345" />
              <mxPoint x="1100" y="370" />
            </Array>
          </mxGeometry>
        </mxCell>
        <mxCell id="T6DtHPbqom4wnW11nf8g-94" value="exists()" style="text;html=1;align=center;verticalAlign=middle;whiteSpace=wrap;rounded=0;" parent="T6DtHPbqom4wnW11nf8g-1" vertex="1">
          <mxGeometry x="1070" y="320" width="60" height="30" as="geometry" />
        </mxCell>
        <mxCell id="T6DtHPbqom4wnW11nf8g-101" value="" style="html=1;verticalAlign=bottom;labelBackgroundColor=none;endArrow=open;endFill=0;dashed=1;rounded=0;" parent="T6DtHPbqom4wnW11nf8g-1" edge="1">
          <mxGeometry width="160" relative="1" as="geometry">
            <mxPoint x="590" y="461" as="sourcePoint" />
            <mxPoint x="290" y="461" as="targetPoint" />
            <Array as="points">
              <mxPoint x="566.3" y="460" />
              <mxPoint x="496.29999999999995" y="461" />
            </Array>
          </mxGeometry>
        </mxCell>
        <mxCell id="T6DtHPbqom4wnW11nf8g-102" value="message(&quot;user already exists, do you want to update their information?&quot;)" style="text;html=1;align=center;verticalAlign=middle;whiteSpace=wrap;rounded=0;" parent="T6DtHPbqom4wnW11nf8g-1" vertex="1">
          <mxGeometry x="310" y="430" width="220" height="30" as="geometry" />
        </mxCell>
        <mxCell id="T6DtHPbqom4wnW11nf8g-120" style="edgeStyle=orthogonalEdgeStyle;rounded=0;orthogonalLoop=1;jettySize=auto;html=1;curved=0;exitX=1;exitY=1;exitDx=0;exitDy=-5;exitPerimeter=0;" parent="T6DtHPbqom4wnW11nf8g-1" edge="1">
          <mxGeometry relative="1" as="geometry">
            <mxPoint x="295" y="480" as="sourcePoint" />
            <mxPoint x="290" y="505" as="targetPoint" />
            <Array as="points">
              <mxPoint x="315" y="480" />
              <mxPoint x="315" y="505" />
            </Array>
          </mxGeometry>
        </mxCell>
        <mxCell id="T6DtHPbqom4wnW11nf8g-121" value="DisplayError" style="text;html=1;align=center;verticalAlign=middle;whiteSpace=wrap;rounded=0;" parent="T6DtHPbqom4wnW11nf8g-1" vertex="1">
          <mxGeometry x="320" y="480" width="60" height="30" as="geometry" />
        </mxCell>
        <mxCell id="T6DtHPbqom4wnW11nf8g-127" value="" style="html=1;verticalAlign=bottom;labelBackgroundColor=none;endArrow=open;endFill=0;dashed=1;rounded=0;" parent="T6DtHPbqom4wnW11nf8g-1" edge="1">
          <mxGeometry width="160" relative="1" as="geometry">
            <mxPoint x="590" y="551" as="sourcePoint" />
            <mxPoint x="295" y="551" as="targetPoint" />
            <Array as="points">
              <mxPoint x="580" y="551" />
            </Array>
          </mxGeometry>
        </mxCell>
        <mxCell id="T6DtHPbqom4wnW11nf8g-129" style="edgeStyle=orthogonalEdgeStyle;rounded=0;orthogonalLoop=1;jettySize=auto;html=1;curved=0;exitX=1;exitY=1;exitDx=0;exitDy=-5;exitPerimeter=0;" parent="T6DtHPbqom4wnW11nf8g-1" edge="1">
          <mxGeometry relative="1" as="geometry">
            <mxPoint x="300.05" y="570" as="sourcePoint" />
            <mxPoint x="295.05" y="595" as="targetPoint" />
            <Array as="points">
              <mxPoint x="320.05" y="570" />
              <mxPoint x="320.05" y="595" />
            </Array>
          </mxGeometry>
        </mxCell>
        <mxCell id="T6DtHPbqom4wnW11nf8g-130" value="Success Message" style="text;html=1;align=center;verticalAlign=middle;whiteSpace=wrap;rounded=0;" parent="T6DtHPbqom4wnW11nf8g-1" vertex="1">
          <mxGeometry x="320" y="570" width="60" height="30" as="geometry" />
        </mxCell>
        <mxCell id="T6DtHPbqom4wnW11nf8g-131" value="" style="html=1;verticalAlign=bottom;labelBackgroundColor=none;endArrow=open;endFill=0;dashed=1;rounded=0;" parent="T6DtHPbqom4wnW11nf8g-1" edge="1">
          <mxGeometry width="160" relative="1" as="geometry">
            <mxPoint x="585" y="720" as="sourcePoint" />
            <mxPoint x="300" y="720" as="targetPoint" />
            <Array as="points">
              <mxPoint x="575" y="720" />
            </Array>
          </mxGeometry>
        </mxCell>
        <mxCell id="T6DtHPbqom4wnW11nf8g-133" value="message(&quot;user registered&quot;)" style="text;html=1;align=center;verticalAlign=middle;whiteSpace=wrap;rounded=0;" parent="T6DtHPbqom4wnW11nf8g-1" vertex="1">
          <mxGeometry x="350" y="520" width="140" height="30" as="geometry" />
        </mxCell>
        <mxCell id="T6DtHPbqom4wnW11nf8g-134" value="message(&quot;please check if all fields are correctly entered&quot;)" style="text;html=1;align=center;verticalAlign=middle;whiteSpace=wrap;rounded=0;" parent="T6DtHPbqom4wnW11nf8g-1" vertex="1">
          <mxGeometry x="300" y="680" width="230" height="30" as="geometry" />
        </mxCell>
        <mxCell id="Q7TuzkHMrgkAkMYCFhBG-2" style="edgeStyle=orthogonalEdgeStyle;rounded=0;orthogonalLoop=1;jettySize=auto;html=1;curved=0;exitX=1;exitY=1;exitDx=0;exitDy=-5;exitPerimeter=0;" edge="1" parent="T6DtHPbqom4wnW11nf8g-1">
          <mxGeometry relative="1" as="geometry">
            <mxPoint x="300" y="740" as="sourcePoint" />
            <mxPoint x="295" y="765" as="targetPoint" />
            <Array as="points">
              <mxPoint x="320" y="740" />
              <mxPoint x="320" y="765" />
            </Array>
          </mxGeometry>
        </mxCell>
        <mxCell id="Q7TuzkHMrgkAkMYCFhBG-3" value="DisplayError" style="text;html=1;align=center;verticalAlign=middle;whiteSpace=wrap;rounded=0;" vertex="1" parent="T6DtHPbqom4wnW11nf8g-1">
          <mxGeometry x="330" y="730" width="60" height="30" as="geometry" />
        </mxCell>
        <mxCell id="T6DtHPbqom4wnW11nf8g-16" value="sd Register User&lt;span style=&quot;color: rgba(0, 0, 0, 0); font-family: monospace; font-size: 0px; text-align: start; text-wrap-mode: nowrap;&quot;&gt;%3CmxGraphModel%3E%3Croot%3E%3CmxCell%20id%3D%220%22%2F%3E%3CmxCell%20id%3D%221%22%20parent%3D%220%22%2F%3E%3CmxCell%20id%3D%222%22%20value%3D%22sd%20Login%22%20style%3D%22shape%3DumlFrame%3BwhiteSpace%3Dwrap%3Bhtml%3D1%3BpointerEvents%3D0%3BrecursiveResize%3D0%3Bcontainer%3D1%3Bcollapsible%3D0%3Bwidth%3D160%3B%22%20vertex%3D%221%22%20parent%3D%221%22%3E%3CmxGeometry%20x%3D%22-70%22%20y%3D%2210%22%20width%3D%221020%22%20height%3D%22700%22%20as%3D%22geometry%22%2F%3E%3C%2FmxCell%3E%3CmxCell%20id%3D%223%22%20value%3D%22User%22%20style%3D%22shape%3DumlActor%3BverticalLabelPosition%3Dbottom%3BverticalAlign%3Dtop%3Bhtml%3D1%3B%22%20vertex%3D%221%22%20parent%3D%222%22%3E%3CmxGeometry%20x%3D%2220%22%20y%3D%2260%22%20width%3D%2230%22%20height%3D%2260%22%20as%3D%22geometry%22%2F%3E%3C%2FmxCell%3E%3C%2Froot%3E%3C%2FmxGraphModel%3E&lt;/span&gt;" style="shape=umlFrame;whiteSpace=wrap;html=1;pointerEvents=0;recursiveResize=0;container=1;collapsible=0;width=160;" parent="1" vertex="1">
          <mxGeometry x="-60" y="2400" width="1020" height="700" as="geometry" />
        </mxCell>
        <mxCell id="T6DtHPbqom4wnW11nf8g-17" value="User" style="shape=umlActor;verticalLabelPosition=bottom;verticalAlign=top;html=1;" parent="T6DtHPbqom4wnW11nf8g-16" vertex="1">
          <mxGeometry x="20" y="60" width="30" height="60" as="geometry" />
        </mxCell>
      </root>
    </mxGraphModel>
  </diagram>
</mxfile>
